# xmcd
#
# Track frame offsets:
#	150
#	9715
#	20107
#	32508
#	42100
#	55394
#	65069
#	76030
#	86166
#	96549
#	107828
#	117198
#	125897
#	136077
#	146792
#	159184
#	168233
#	177936
#	186400
#	205323
#	218771
#	231899
#	242874
#	254317
#	266622
#	281570
#
# Disc length: 3869 seconds
#
# Revision: 0
# Processed by: cddbd v1.5.2PL0 Copyright (c) Steve Scherf et al.
# Submitted via: EasyCDDAExtractor 15.3.0.1
#
DISCID=800f1b1a
DTITLE=Stanley Brothers - Best Of King Bluegrass Cd 2
DYEAR=1900
DGENRE=
TTITLE0=Stanley Brothers - How Mountain Girls Can Love
TTITLE1=Stanley Brothers - Clinch Mountain Backstep
TTITLE2=Stanley Brothers - Train 45
TTITLE3=Stanley Brothers - Think Of What You've Done
TTITLE4=Easter Brothers - There's Rest Just Ahead
TTITLE5=Easter Brothers - Singing With The Angels
TTITLE6=Easter Brothers - Bible On The Table
TTITLE7=Easter Brothers - John Saw The Kingdom
TTITLE8=Reno Don and Red Smiley - Down On The Farm
TTITLE9=Reno Don and Red Smiley - Love Please Come Home
TTITLE10=Reno Don and Red Smiley - Bringin' In The Georgia Mail
TTITLE11=Duncan Bill - Country Home
TTITLE12=Duncan Bill - Slippin' Banjo
TTITLE13=Duncan Bill - Just Being You
TTITLE14=Duncan Bill - Daisies Never Tell
TTITLE15=Moore Charlie and Bill Napier - Whitrock
TTITLE16=Moore Charlie and Bill Napier - I'm Giving You Your Freedom
TTITLE17=Moore Charlie and Bill Napier - Goodbye And So Long To You
TTITLE18=Moore Charlie and Bill Napier - Barbara Allen
TTITLE19=Reno Don and Bill Harrell - Big Train
TTITLE20=Reno Don and Bill Harrell - Just A Phone Call Will Do
TTITLE21=Reno Don and Bill Harrell - Welcome Home
TTITLE22=Stanley Ralph - Going Up Home To Live In Green Pastures
TTITLE23=Stanley Ralph - Over The Sunset Hill
TTITLE24=Stanley Ralph - I Only Exist
TTITLE25=Stanley Ralph - Coosey
EXTD=
EXTT0=
EXTT1=
EXTT2=
EXTT3=
EXTT4=
EXTT5=
EXTT6=
EXTT7=
EXTT8=
EXTT9=
EXTT10=
EXTT11=
EXTT12=
EXTT13=
EXTT14=
EXTT15=
EXTT16=
EXTT17=
EXTT18=
EXTT19=
EXTT20=
EXTT21=
EXTT22=
EXTT23=
EXTT24=
EXTT25=
PLAYORDER=
